<mxfile host="app.diagrams.net" modified="2020-09-04T05:11:25.405Z" agent="5.0 (Macintosh; Intel Mac OS X 10_15_6) AppleWebKit/537.36 (KHTML, like Gecko) Chrome/85.0.4183.83 Safari/537.36" etag="x2gU1wRwHkaN2Yvd4tHF" version="13.6.6" type="github">
  <diagram id="2JGPtpaA1yQayifXAmgl" name="Page-1">
    <mxGraphModel dx="2253" dy="740" grid="1" gridSize="10" guides="1" tooltips="1" connect="1" arrows="1" fold="1" page="1" pageScale="1" pageWidth="827" pageHeight="1169" math="0" shadow="0">
      <root>
        <mxCell id="0" />
        <mxCell id="1" parent="0" />
        <mxCell id="ddxc_7d5GhKEYNqCPZqB-66" value="" style="rounded=1;whiteSpace=wrap;html=1;" vertex="1" parent="1">
          <mxGeometry x="-80" y="140" width="940" height="220" as="geometry" />
        </mxCell>
        <mxCell id="ddxc_7d5GhKEYNqCPZqB-1" value="gtj" style="rounded=0;whiteSpace=wrap;html=1;fillColor=#E6E6E6;" vertex="1" parent="1">
          <mxGeometry x="130" y="205" width="60" height="30" as="geometry" />
        </mxCell>
        <mxCell id="ddxc_7d5GhKEYNqCPZqB-4" value="sa128" style="rounded=0;whiteSpace=wrap;html=1;fillColor=#E6E6E6;" vertex="1" parent="1">
          <mxGeometry x="200" y="205" width="60" height="30" as="geometry" />
        </mxCell>
        <mxCell id="ddxc_7d5GhKEYNqCPZqB-5" value="ew9" style="rounded=0;whiteSpace=wrap;html=1;fillColor=#E6E6E6;" vertex="1" parent="1">
          <mxGeometry x="340" y="165" width="60" height="30" as="geometry" />
        </mxCell>
        <mxCell id="ddxc_7d5GhKEYNqCPZqB-6" value="gan" style="rounded=0;whiteSpace=wrap;html=1;fillColor=#E6E6E6;" vertex="1" parent="1">
          <mxGeometry x="410" y="205" width="60" height="30" as="geometry" />
        </mxCell>
        <mxCell id="ddxc_7d5GhKEYNqCPZqB-7" value="et2" style="rounded=0;whiteSpace=wrap;html=1;fillColor=#E6E6E6;" vertex="1" parent="1">
          <mxGeometry x="270" y="245" width="60" height="30" as="geometry" />
        </mxCell>
        <mxCell id="ddxc_7d5GhKEYNqCPZqB-8" value="zui" style="rounded=0;whiteSpace=wrap;html=1;fillColor=#E6E6E6;" vertex="1" parent="1">
          <mxGeometry x="410" y="165" width="60" height="30" as="geometry" />
        </mxCell>
        <mxCell id="ddxc_7d5GhKEYNqCPZqB-9" value="et15" style="rounded=0;whiteSpace=wrap;html=1;fillColor=#E6E6E6;" vertex="1" parent="1">
          <mxGeometry x="480" y="205" width="60" height="30" as="geometry" />
        </mxCell>
        <mxCell id="ddxc_7d5GhKEYNqCPZqB-10" value="stl" style="rounded=0;whiteSpace=wrap;html=1;fillColor=#E6E6E6;" vertex="1" parent="1">
          <mxGeometry x="550" y="205" width="60" height="30" as="geometry" />
        </mxCell>
        <mxCell id="ddxc_7d5GhKEYNqCPZqB-11" value="em14" style="rounded=0;whiteSpace=wrap;html=1;fillColor=#E6E6E6;" vertex="1" parent="1">
          <mxGeometry x="550" y="245" width="60" height="30" as="geometry" />
        </mxCell>
        <mxCell id="ddxc_7d5GhKEYNqCPZqB-14" value="us68" style="rounded=0;whiteSpace=wrap;html=1;fillColor=#E6E6E6;" vertex="1" parent="1">
          <mxGeometry x="410" y="245" width="60" height="30" as="geometry" />
        </mxCell>
        <mxCell id="ddxc_7d5GhKEYNqCPZqB-15" value="owt1" style="rounded=0;whiteSpace=wrap;html=1;fillColor=#E6E6E6;" vertex="1" parent="1">
          <mxGeometry x="340" y="245" width="60" height="30" as="geometry" />
        </mxCell>
        <mxCell id="ddxc_7d5GhKEYNqCPZqB-16" value="id137" style="rounded=0;whiteSpace=wrap;html=1;fillColor=#E6E6E6;" vertex="1" parent="1">
          <mxGeometry x="270" y="165" width="60" height="30" as="geometry" />
        </mxCell>
        <mxCell id="ddxc_7d5GhKEYNqCPZqB-17" value="id35" style="rounded=0;whiteSpace=wrap;html=1;fillColor=#E6E6E6;" vertex="1" parent="1">
          <mxGeometry x="340" y="205" width="60" height="30" as="geometry" />
        </mxCell>
        <mxCell id="ddxc_7d5GhKEYNqCPZqB-18" value="oc27" style="rounded=0;whiteSpace=wrap;html=1;fillColor=#E6E6E6;" vertex="1" parent="1">
          <mxGeometry x="480" y="245" width="60" height="30" as="geometry" />
        </mxCell>
        <mxCell id="ddxc_7d5GhKEYNqCPZqB-19" value="us44" style="rounded=0;whiteSpace=wrap;html=1;fillColor=#E6E6E6;" vertex="1" parent="1">
          <mxGeometry x="270" y="205" width="60" height="30" as="geometry" />
        </mxCell>
        <mxCell id="ddxc_7d5GhKEYNqCPZqB-20" value="sg52" style="rounded=0;whiteSpace=wrap;html=1;fillColor=#E6E6E6;" vertex="1" parent="1">
          <mxGeometry x="480" y="165" width="60" height="30" as="geometry" />
        </mxCell>
        <mxCell id="ddxc_7d5GhKEYNqCPZqB-21" value="vn140" style="rounded=0;whiteSpace=wrap;html=1;fillColor=#E6E6E6;" vertex="1" parent="1">
          <mxGeometry x="550" y="165" width="60" height="30" as="geometry" />
        </mxCell>
        <mxCell id="ddxc_7d5GhKEYNqCPZqB-22" value="stm" style="rounded=0;whiteSpace=wrap;html=1;fillColor=#E6E6E6;" vertex="1" parent="1">
          <mxGeometry x="200" y="245" width="60" height="30" as="geometry" />
        </mxCell>
        <mxCell id="ddxc_7d5GhKEYNqCPZqB-23" value="sa127" style="rounded=0;whiteSpace=wrap;html=1;fillColor=#E6E6E6;" vertex="1" parent="1">
          <mxGeometry x="130" y="245" width="60" height="30" as="geometry" />
        </mxCell>
        <mxCell id="ddxc_7d5GhKEYNqCPZqB-24" value="sg94" style="rounded=0;whiteSpace=wrap;html=1;fillColor=#E6E6E6;" vertex="1" parent="1">
          <mxGeometry x="130" y="165" width="60" height="30" as="geometry" />
        </mxCell>
        <mxCell id="ddxc_7d5GhKEYNqCPZqB-25" value="utw" style="rounded=0;whiteSpace=wrap;html=1;fillColor=#E6E6E6;" vertex="1" parent="1">
          <mxGeometry x="200" y="165" width="60" height="30" as="geometry" />
        </mxCell>
        <mxCell id="ddxc_7d5GhKEYNqCPZqB-26" value="antvip" style="shape=process;whiteSpace=wrap;html=1;backgroundOutline=1;fillColor=#E6E6E6;" vertex="1" parent="1">
          <mxGeometry x="145" y="380" width="465" height="20" as="geometry" />
        </mxCell>
        <mxCell id="ddxc_7d5GhKEYNqCPZqB-82" style="edgeStyle=orthogonalEdgeStyle;rounded=0;orthogonalLoop=1;jettySize=auto;html=1;exitX=0;exitY=0.5;exitDx=0;exitDy=0;entryX=0.5;entryY=1;entryDx=0;entryDy=0;" edge="1" parent="1" source="ddxc_7d5GhKEYNqCPZqB-27" target="ddxc_7d5GhKEYNqCPZqB-79">
          <mxGeometry relative="1" as="geometry" />
        </mxCell>
        <mxCell id="ddxc_7d5GhKEYNqCPZqB-27" value="" style="rounded=0;whiteSpace=wrap;html=1;" vertex="1" parent="1">
          <mxGeometry x="145" y="420" width="945" height="370" as="geometry" />
        </mxCell>
        <mxCell id="ddxc_7d5GhKEYNqCPZqB-59" style="edgeStyle=orthogonalEdgeStyle;rounded=0;orthogonalLoop=1;jettySize=auto;html=1;exitX=0.5;exitY=1;exitDx=0;exitDy=0;entryX=0.5;entryY=0;entryDx=0;entryDy=0;" edge="1" parent="1" source="ddxc_7d5GhKEYNqCPZqB-28" target="ddxc_7d5GhKEYNqCPZqB-52">
          <mxGeometry relative="1" as="geometry" />
        </mxCell>
        <mxCell id="ddxc_7d5GhKEYNqCPZqB-28" value="operator-pre" style="rounded=0;whiteSpace=wrap;html=1;fillColor=#E6E6E6;" vertex="1" parent="1">
          <mxGeometry x="190" y="290" width="120" height="60" as="geometry" />
        </mxCell>
        <mxCell id="ddxc_7d5GhKEYNqCPZqB-61" style="edgeStyle=orthogonalEdgeStyle;rounded=0;orthogonalLoop=1;jettySize=auto;html=1;exitX=0.5;exitY=1;exitDx=0;exitDy=0;entryX=0.5;entryY=0;entryDx=0;entryDy=0;" edge="1" parent="1" source="ddxc_7d5GhKEYNqCPZqB-29" target="ddxc_7d5GhKEYNqCPZqB-53">
          <mxGeometry relative="1" as="geometry" />
        </mxCell>
        <mxCell id="ddxc_7d5GhKEYNqCPZqB-29" value="&lt;span&gt;operator-gray&lt;/span&gt;" style="rounded=0;whiteSpace=wrap;html=1;fillColor=#E6E6E6;" vertex="1" parent="1">
          <mxGeometry x="320" y="290" width="120" height="60" as="geometry" />
        </mxCell>
        <mxCell id="ddxc_7d5GhKEYNqCPZqB-62" style="edgeStyle=orthogonalEdgeStyle;rounded=0;orthogonalLoop=1;jettySize=auto;html=1;exitX=0.5;exitY=1;exitDx=0;exitDy=0;entryX=0.5;entryY=0;entryDx=0;entryDy=0;" edge="1" parent="1" source="ddxc_7d5GhKEYNqCPZqB-30" target="ddxc_7d5GhKEYNqCPZqB-54">
          <mxGeometry relative="1" as="geometry" />
        </mxCell>
        <mxCell id="ddxc_7d5GhKEYNqCPZqB-30" value="&lt;span&gt;operator-prod&lt;/span&gt;" style="rounded=0;whiteSpace=wrap;html=1;fillColor=#B3B3B3;" vertex="1" parent="1">
          <mxGeometry x="450" y="290" width="120" height="60" as="geometry" />
        </mxCell>
        <mxCell id="ddxc_7d5GhKEYNqCPZqB-36" value="" style="edgeStyle=orthogonalEdgeStyle;rounded=0;orthogonalLoop=1;jettySize=auto;html=1;entryX=0;entryY=0.5;entryDx=0;entryDy=0;fillColor=#E6E6E6;" edge="1" parent="1" source="ddxc_7d5GhKEYNqCPZqB-33" target="ddxc_7d5GhKEYNqCPZqB-35">
          <mxGeometry relative="1" as="geometry" />
        </mxCell>
        <mxCell id="ddxc_7d5GhKEYNqCPZqB-44" value="" style="edgeStyle=orthogonalEdgeStyle;rounded=0;orthogonalLoop=1;jettySize=auto;html=1;fillColor=#E6E6E6;" edge="1" parent="1" source="ddxc_7d5GhKEYNqCPZqB-33" target="ddxc_7d5GhKEYNqCPZqB-43">
          <mxGeometry relative="1" as="geometry" />
        </mxCell>
        <mxCell id="ddxc_7d5GhKEYNqCPZqB-33" value="antq-aggregation" style="whiteSpace=wrap;html=1;rounded=0;fillColor=#B3B3B3;" vertex="1" parent="1">
          <mxGeometry x="540" y="660" width="120" height="60" as="geometry" />
        </mxCell>
        <mxCell id="ddxc_7d5GhKEYNqCPZqB-41" value="" style="edgeStyle=orthogonalEdgeStyle;rounded=0;orthogonalLoop=1;jettySize=auto;html=1;fillColor=#E6E6E6;" edge="1" parent="1" source="ddxc_7d5GhKEYNqCPZqB-35" target="ddxc_7d5GhKEYNqCPZqB-40">
          <mxGeometry relative="1" as="geometry">
            <Array as="points">
              <mxPoint x="1020" y="640" />
              <mxPoint x="1020" y="690" />
            </Array>
          </mxGeometry>
        </mxCell>
        <mxCell id="ddxc_7d5GhKEYNqCPZqB-81" style="edgeStyle=orthogonalEdgeStyle;rounded=0;orthogonalLoop=1;jettySize=auto;html=1;exitX=0;exitY=0.25;exitDx=0;exitDy=0;entryX=0.5;entryY=1;entryDx=0;entryDy=0;fillColor=#E6E6E6;" edge="1" parent="1" source="ddxc_7d5GhKEYNqCPZqB-35" target="ddxc_7d5GhKEYNqCPZqB-80">
          <mxGeometry relative="1" as="geometry" />
        </mxCell>
        <mxCell id="ddxc_7d5GhKEYNqCPZqB-35" value="oceanbase" style="whiteSpace=wrap;html=1;rounded=0;fillColor=#B3B3B3;" vertex="1" parent="1">
          <mxGeometry x="720" y="610" width="120" height="60" as="geometry" />
        </mxCell>
        <mxCell id="ddxc_7d5GhKEYNqCPZqB-40" value="openapi" style="shape=hexagon;perimeter=hexagonPerimeter2;whiteSpace=wrap;html=1;fixedSize=1;rounded=0;fillColor=#B3B3B3;" vertex="1" parent="1">
          <mxGeometry x="1050" y="650" width="120" height="80" as="geometry" />
        </mxCell>
        <mxCell id="ddxc_7d5GhKEYNqCPZqB-46" value="" style="edgeStyle=orthogonalEdgeStyle;rounded=0;orthogonalLoop=1;jettySize=auto;html=1;fillColor=#E6E6E6;" edge="1" parent="1" source="ddxc_7d5GhKEYNqCPZqB-43" target="ddxc_7d5GhKEYNqCPZqB-45">
          <mxGeometry relative="1" as="geometry" />
        </mxCell>
        <mxCell id="ddxc_7d5GhKEYNqCPZqB-43" value="blink" style="whiteSpace=wrap;html=1;rounded=0;fillColor=#E6E6E6;" vertex="1" parent="1">
          <mxGeometry x="720" y="710" width="120" height="60" as="geometry" />
        </mxCell>
        <mxCell id="ddxc_7d5GhKEYNqCPZqB-47" style="edgeStyle=orthogonalEdgeStyle;rounded=0;orthogonalLoop=1;jettySize=auto;html=1;exitX=1;exitY=0.5;exitDx=0;exitDy=0;entryX=0;entryY=0.5;entryDx=0;entryDy=0;fillColor=#E6E6E6;" edge="1" parent="1" source="ddxc_7d5GhKEYNqCPZqB-45" target="ddxc_7d5GhKEYNqCPZqB-40">
          <mxGeometry relative="1" as="geometry">
            <Array as="points">
              <mxPoint x="1020" y="740" />
              <mxPoint x="1020" y="690" />
            </Array>
          </mxGeometry>
        </mxCell>
        <mxCell id="ddxc_7d5GhKEYNqCPZqB-45" value="elasticsearch" style="whiteSpace=wrap;html=1;rounded=0;fillColor=#E6E6E6;" vertex="1" parent="1">
          <mxGeometry x="880" y="710" width="120" height="60" as="geometry" />
        </mxCell>
        <mxCell id="ddxc_7d5GhKEYNqCPZqB-48" value="antq-monitor" style="whiteSpace=wrap;html=1;rounded=0;fillColor=#E6E6E6;" vertex="1" parent="1">
          <mxGeometry x="370" y="660" width="120" height="60" as="geometry" />
        </mxCell>
        <mxCell id="ddxc_7d5GhKEYNqCPZqB-51" value="&lt;meta charset=&quot;utf-8&quot;&gt;&lt;span style=&quot;color: rgb(0, 0, 0); font-family: helvetica; font-size: 12px; font-style: normal; font-weight: 400; letter-spacing: normal; text-align: center; text-indent: 0px; text-transform: none; word-spacing: 0px; background-color: rgb(248, 249, 250); display: inline; float: none;&quot;&gt;riskmodelcentermeta&lt;/span&gt;" style="text;whiteSpace=wrap;html=1;" vertex="1" parent="1">
          <mxGeometry x="320" y="420" width="140" height="30" as="geometry" />
        </mxCell>
        <mxCell id="ddxc_7d5GhKEYNqCPZqB-60" style="edgeStyle=orthogonalEdgeStyle;rounded=0;orthogonalLoop=1;jettySize=auto;html=1;exitX=0.5;exitY=1;exitDx=0;exitDy=0;entryX=0.5;entryY=0;entryDx=0;entryDy=0;fillColor=#E6E6E6;" edge="1" parent="1" source="ddxc_7d5GhKEYNqCPZqB-52" target="ddxc_7d5GhKEYNqCPZqB-55">
          <mxGeometry relative="1" as="geometry" />
        </mxCell>
        <mxCell id="ddxc_7d5GhKEYNqCPZqB-52" value="meta-pre" style="rounded=1;whiteSpace=wrap;html=1;fillColor=#E6E6E6;" vertex="1" parent="1">
          <mxGeometry x="190" y="460" width="120" height="60" as="geometry" />
        </mxCell>
        <mxCell id="ddxc_7d5GhKEYNqCPZqB-64" style="edgeStyle=orthogonalEdgeStyle;rounded=0;orthogonalLoop=1;jettySize=auto;html=1;exitX=0.5;exitY=1;exitDx=0;exitDy=0;entryX=0.5;entryY=0;entryDx=0;entryDy=0;fillColor=#E6E6E6;" edge="1" parent="1" source="ddxc_7d5GhKEYNqCPZqB-53" target="ddxc_7d5GhKEYNqCPZqB-56">
          <mxGeometry relative="1" as="geometry" />
        </mxCell>
        <mxCell id="ddxc_7d5GhKEYNqCPZqB-53" value="meta-gray" style="rounded=1;whiteSpace=wrap;html=1;fillColor=#E6E6E6;" vertex="1" parent="1">
          <mxGeometry x="320" y="460" width="120" height="60" as="geometry" />
        </mxCell>
        <mxCell id="ddxc_7d5GhKEYNqCPZqB-65" style="edgeStyle=orthogonalEdgeStyle;rounded=0;orthogonalLoop=1;jettySize=auto;html=1;exitX=0.5;exitY=1;exitDx=0;exitDy=0;entryX=0.5;entryY=0;entryDx=0;entryDy=0;fillColor=#E6E6E6;" edge="1" parent="1" source="ddxc_7d5GhKEYNqCPZqB-54" target="ddxc_7d5GhKEYNqCPZqB-57">
          <mxGeometry relative="1" as="geometry" />
        </mxCell>
        <mxCell id="ddxc_7d5GhKEYNqCPZqB-75" style="edgeStyle=orthogonalEdgeStyle;rounded=0;orthogonalLoop=1;jettySize=auto;html=1;exitX=1;exitY=0.5;exitDx=0;exitDy=0;entryX=0.5;entryY=0;entryDx=0;entryDy=0;" edge="1" parent="1" source="ddxc_7d5GhKEYNqCPZqB-54" target="ddxc_7d5GhKEYNqCPZqB-35">
          <mxGeometry relative="1" as="geometry" />
        </mxCell>
        <mxCell id="ddxc_7d5GhKEYNqCPZqB-54" value="meta-prod" style="rounded=1;whiteSpace=wrap;html=1;fillColor=#B3B3B3;" vertex="1" parent="1">
          <mxGeometry x="450" y="460" width="120" height="60" as="geometry" />
        </mxCell>
        <mxCell id="ddxc_7d5GhKEYNqCPZqB-55" value="lindorm-pre" style="rounded=1;whiteSpace=wrap;html=1;fillColor=#E6E6E6;" vertex="1" parent="1">
          <mxGeometry x="190" y="545" width="120" height="60" as="geometry" />
        </mxCell>
        <mxCell id="ddxc_7d5GhKEYNqCPZqB-56" value="lindorm-gray" style="rounded=1;whiteSpace=wrap;html=1;fillColor=#E6E6E6;" vertex="1" parent="1">
          <mxGeometry x="320" y="545" width="120" height="60" as="geometry" />
        </mxCell>
        <mxCell id="ddxc_7d5GhKEYNqCPZqB-73" style="edgeStyle=orthogonalEdgeStyle;rounded=0;orthogonalLoop=1;jettySize=auto;html=1;exitX=0.5;exitY=1;exitDx=0;exitDy=0;entryX=0.5;entryY=0;entryDx=0;entryDy=0;fillColor=#E6E6E6;" edge="1" parent="1" source="ddxc_7d5GhKEYNqCPZqB-57" target="ddxc_7d5GhKEYNqCPZqB-48">
          <mxGeometry relative="1" as="geometry">
            <mxPoint x="430" y="665" as="targetPoint" />
          </mxGeometry>
        </mxCell>
        <mxCell id="ddxc_7d5GhKEYNqCPZqB-84" style="edgeStyle=orthogonalEdgeStyle;rounded=0;orthogonalLoop=1;jettySize=auto;html=1;exitX=1;exitY=0.5;exitDx=0;exitDy=0;entryX=0;entryY=0.75;entryDx=0;entryDy=0;" edge="1" parent="1" source="ddxc_7d5GhKEYNqCPZqB-57" target="ddxc_7d5GhKEYNqCPZqB-80">
          <mxGeometry relative="1" as="geometry" />
        </mxCell>
        <mxCell id="ddxc_7d5GhKEYNqCPZqB-86" style="edgeStyle=orthogonalEdgeStyle;rounded=0;orthogonalLoop=1;jettySize=auto;html=1;exitX=0.5;exitY=1;exitDx=0;exitDy=0;entryX=0.5;entryY=0;entryDx=0;entryDy=0;fillColor=#E6E6E6;" edge="1" parent="1" source="ddxc_7d5GhKEYNqCPZqB-57" target="ddxc_7d5GhKEYNqCPZqB-33">
          <mxGeometry relative="1" as="geometry" />
        </mxCell>
        <mxCell id="ddxc_7d5GhKEYNqCPZqB-57" value="lindorm-prod" style="rounded=1;whiteSpace=wrap;html=1;fillColor=#B3B3B3;" vertex="1" parent="1">
          <mxGeometry x="450" y="545" width="120" height="60" as="geometry" />
        </mxCell>
        <mxCell id="ddxc_7d5GhKEYNqCPZqB-69" value="sigma" style="text;html=1;align=center;verticalAlign=middle;resizable=0;points=[];autosize=1;" vertex="1" parent="1">
          <mxGeometry x="-40" y="165" width="50" height="20" as="geometry" />
        </mxCell>
        <mxCell id="ddxc_7d5GhKEYNqCPZqB-79" value="&lt;span&gt;数据比对&lt;/span&gt;&amp;amp;修复&lt;span&gt;&lt;br&gt;sigma&amp;lt;--&amp;gt;lindorm&lt;/span&gt;&lt;br&gt;&lt;span&gt;1. 全部数据，10min&lt;/span&gt;&lt;br&gt;&lt;span&gt;2. 高精度数据（分时调度），5-10s&lt;/span&gt;" style="shape=process;whiteSpace=wrap;html=1;backgroundOutline=1;fillColor=#E6E6E6;align=left;" vertex="1" parent="1">
          <mxGeometry x="-50" y="235" width="150" height="100" as="geometry" />
        </mxCell>
        <mxCell id="ddxc_7d5GhKEYNqCPZqB-80" value="&lt;span&gt;数据比对&amp;amp;修复&amp;nbsp;&lt;br&gt;ob&amp;lt;--&amp;gt;lindorm&lt;/span&gt;&lt;br&gt;&lt;span&gt;1. 全部数据，10min&lt;/span&gt;&lt;br&gt;&lt;span&gt;2. 高精度数据（分时调度），5-10s&lt;/span&gt;" style="shape=process;whiteSpace=wrap;html=1;backgroundOutline=1;fillColor=#FFFFFF;align=left;" vertex="1" parent="1">
          <mxGeometry x="610" y="500" width="150" height="100" as="geometry" />
        </mxCell>
      </root>
    </mxGraphModel>
  </diagram>
</mxfile>
